<?xml version="1.0" encoding="UTF-8" standalone="no"?>
<!-- Created with Inkscape (http://www.inkscape.org/) -->
<svg xmlns:dc="http://purl.org/dc/elements/1.1/" xmlns:cc="http://creativecommons.org/ns#" xmlns:rdf="http://www.w3.org/1999/02/22-rdf-syntax-ns#" xmlns:svg="http://www.w3.org/2000/svg" xmlns="http://www.w3.org/2000/svg" version="1.1" width="1748.353" height="389.33801" viewBox="0 0 1748.353 389.338" id="svg2" xml:space="preserve"><metadata id="metadata221"><rdf:RDF><cc:Work rdf:about=""><dc:format>image/svg+xml</dc:format><dc:type rdf:resource="http://purl.org/dc/dcmitype/StillImage"/><dc:title/></cc:Work></rdf:RDF></metadata><defs id="defs219"/>
<path d="M 1697.322,383.169 H 50.016 c -24.729,0 -44.847,-20.118 -44.847,-44.847 V 50.016 C 5.169,25.287 25.287,5.169 50.016,5.169 h 1647.307 c 24.729,0 44.847,20.118 44.847,44.847 v 288.307 c -10e-4,24.728 -20.119,44.846 -44.848,44.846 z" id="path3" style="fill:#ffffff;stroke:#000000;stroke-width:3"/>
<path d="m 50.016,21.669 c -15.656,0 -28.347,12.691 -28.347,28.347 v 288.307 c 0,15.655 12.691,28.347 28.347,28.347 h 132.548 v -345 H 50.016 z" id="path5" style="fill:#033fa2"/>
<path d="m 1725.669,338.323 c 0,15.655 -12.691,28.347 -28.347,28.347 H 50.016 c -15.656,0 -28.347,-12.691 -28.347,-28.347 V 50.016 c 0,-15.656 12.691,-28.347 28.347,-28.347 h 1647.307 c 15.655,0 28.347,12.691 28.347,28.347 v 288.307 z" id="path7" style="fill:none;stroke:#000000;stroke-width:16;stroke-miterlimit:10"/>
<g id="g9">
	<polygon points="106.889,59.281 112.207,59.289 107.909,62.422 109.545,67.482 105.238,64.363 100.93,67.482 102.566,62.422 98.268,59.289 103.586,59.281 105.238,54.226 " id="polygon11" style="fill:#ffc200"/>
	<polygon points="132.394,66.138 137.712,66.146 133.414,69.278 135.05,74.339 130.743,71.22 126.435,74.339 128.071,69.278 123.773,66.146 129.091,66.138 130.743,61.082 " id="polygon13" style="fill:#ffc200"/>
	<polygon points="151.038,84.879 156.356,84.887 152.059,88.02 153.694,93.08 149.387,89.961 145.08,93.08 146.715,88.02 142.417,84.887 147.736,84.879 149.387,79.823 " id="polygon15" style="fill:#ffc200"/>
	<polygon points="157.921,110.34 163.239,110.348 158.941,113.481 160.577,118.542 156.27,115.422 151.962,118.542 153.598,113.481 149.3,110.348 154.619,110.34 156.27,105.285 " id="polygon17" style="fill:#ffc200"/>
	<polygon points="151.078,135.87 156.396,135.878 152.099,139.011 153.734,144.071 149.427,140.952 145.12,144.071 146.755,139.011 142.458,135.878 147.776,135.87 149.427,130.814 " id="polygon19" style="fill:#ffc200"/>
	<polygon points="132.351,154.569 137.669,154.577 133.371,157.709 135.007,162.77 130.7,159.651 126.392,162.77 128.028,157.709 123.73,154.577 129.048,154.569 130.7,149.513 " id="polygon21" style="fill:#ffc200"/>
	<polygon points="106.816,161.347 112.135,161.354 107.837,164.487 109.473,169.548 105.166,166.429 100.858,169.548 102.494,164.487 98.196,161.354 103.514,161.347 105.166,156.291 " id="polygon23" style="fill:#ffc200"/>
	<polygon points="81.318,154.573 86.637,154.581 82.339,157.713 83.975,162.774 79.667,159.655 75.36,162.774 76.996,157.713 72.698,154.581 78.016,154.573 79.667,149.517 " id="polygon25" style="fill:#ffc200"/>
	<polygon points="62.671,135.908 67.99,135.916 63.692,139.049 65.328,144.109 61.021,140.99 56.713,144.109 58.349,139.049 54.051,135.916 59.369,135.908 61.021,130.853 " id="polygon27" style="fill:#ffc200"/>
	<polygon points="55.859,110.375 61.177,110.382 56.879,113.515 58.515,118.576 54.208,115.457 49.9,118.576 51.536,113.515 47.238,110.382 52.557,110.375 54.208,105.319 " id="polygon29" style="fill:#ffc200"/>
	<polygon points="62.601,84.807 67.919,84.815 63.622,87.948 65.257,93.008 60.95,89.889 56.643,93.008 58.278,87.948 53.98,84.815 59.299,84.807 60.95,79.751 " id="polygon31" style="fill:#ffc200"/>
	<polygon points="81.335,66.104 86.653,66.111 82.355,69.244 83.991,74.305 79.684,71.186 75.376,74.305 77.012,69.244 72.714,66.111 78.033,66.104 79.684,61.048 " id="polygon33" style="fill:#ffc200"/>
</g>
<g id="g35">
	<path d="m 1183.096,286.569 h 78.765 v 35.454 h -133.912 v -35.454 l 93.64,-136.137 c 3.067,-4.735 4.818,-10.658 4.818,-16.77 0,-17.37 -14.132,-31.502 -31.501,-31.502 -17.37,0 -31.502,14.132 -31.502,31.502 h -35.455 c 0,-36.92 30.036,-66.957 66.957,-66.957 36.921,0 66.955,30.037 66.955,66.957 0,12.981 -3.728,25.583 -10.781,36.444 l -73.123,106.715 c -3.687,5.384 -1.388,9.748 5.139,9.748 z" id="path37"/>
	<path d="m 1088.765,232.123 v 22.944 c 0,36.919 -30.037,66.956 -66.958,66.956 -36.919,0 -66.957,-30.037 -66.957,-66.956 h 35.455 c 0,17.369 14.133,31.502 31.502,31.502 17.371,0 31.503,-14.133 31.503,-31.502 v -22.944 c 0,-17.371 -14.132,-31.503 -31.503,-31.503 v -35.455 c 17.371,0 31.503,-14.132 31.503,-31.502 0,-17.37 -14.132,-31.502 -31.503,-31.502 -17.369,0 -31.502,14.132 -31.502,31.502 H 954.85 c 0,-36.92 30.038,-66.957 66.957,-66.957 36.921,0 66.958,30.037 66.958,66.957 0,19.476 -8.411,36.983 -21.73,49.229 13.319,12.245 21.73,29.753 21.73,49.231 z" id="path39"/>
	<path d="m 1427.859,276.862 h -20.492 c -3.264,0 -5.911,2.644 -5.911,5.909 v 39.252 h -35.454 v -39.252 c 0,-3.266 -2.646,-5.909 -5.909,-5.909 h -66.145 v -35.455 l 58.48,-174.701 h 37.383 l -56.526,169.099 c -1.032,3.094 0.773,5.603 4.037,5.603 h 22.771 c 3.264,0 5.909,-2.643 5.909,-5.908 v -27.533 h 35.454 V 235.5 c 0,3.266 2.647,5.908 5.911,5.908 h 20.492 v 35.454 z" id="path41"/>
	<path d="m 276.298,108.07 v 42.697 c 0,3.264 2.32,4.637 5.32,3.353 8.048,-3.436 16.891,-5.349 26.182,-5.349 36.92,0 66.957,30.036 66.957,66.956 v 39.322 c 0,36.932 -30.036,66.975 -66.957,66.975 -33.476,0 -61.209,-24.722 -66.108,-56.857 h 36.421 c 4.239,12.4 15.876,21.403 29.688,21.403 17.37,0 31.502,-14.139 31.502,-31.521 v -39.322 c 0,-17.369 -14.132,-31.501 -31.502,-31.501 -17.37,0 -31.502,14.133 -31.502,31.501 v 12.57 H 240.844 V 66.706 h 133.913 v 35.455 h -92.549 c -3.264,0 -5.91,2.646 -5.91,5.909 z" id="path43"/>
	<path d="m 612.268,167.066 c -3,1.284 -5.321,-0.09 -5.321,-3.353 V 133.68 c 0,-17.381 14.132,-31.52 31.502,-31.52 17.37,0 31.502,14.138 31.502,31.52 h 35.455 c 0,-36.929 -30.036,-66.975 -66.957,-66.975 -36.92,0 -66.957,30.045 -66.957,66.975 v 118.033 c 0,38.109 30.662,70.31 66.957,70.31 36.295,0 66.957,-32.2 66.957,-70.31 v -23.026 c 0,-36.93 -30.036,-66.974 -66.957,-66.974 -9.291,0 -18.134,1.914 -26.181,5.353 z m 57.683,84.647 c 0,18.24 -15.016,34.855 -31.502,34.855 -16.486,0 -31.502,-16.615 -31.502,-34.855 v -23.026 c 0,-17.381 14.132,-31.519 31.502,-31.519 17.37,0 31.502,14.138 31.502,31.519 v 23.026 z" id="path45"/>
	<path d="m 1531.003,322.023 c -36.918,0 -66.955,-30.043 -66.955,-66.975 V 133.66 c 0,-36.917 30.037,-66.954 66.955,-66.954 36.922,0 66.958,30.037 66.958,66.954 v 121.389 c 0,36.931 -30.036,66.974 -66.958,66.974 z m 0,-219.862 c -17.368,0 -31.501,14.129 -31.501,31.499 v 121.389 c 0,17.382 14.133,31.521 31.501,31.521 17.37,0 31.503,-14.139 31.503,-31.521 V 133.66 c 0,-17.37 -14.133,-31.499 -31.503,-31.499 z" id="path47"/>
	<path d="m 453.028,283.741 h 35.604 c 3.261,0 6.302,2.613 6.78,5.845 l 4.854,32.438 h 35.853 L 497.9,66.706 h -54.14 l -38.225,255.317 h 35.853 l 4.854,-32.438 c 0.485,-3.231 3.52,-5.844 6.786,-5.844 z m 30.296,-35.455 h -24.987 c -3.266,0 -5.517,-2.614 -5.032,-5.845 l 14.899,-99.557 c 0.67,-4.476 4.583,-4.476 5.252,0 l 14.899,99.557 c 0.486,3.23 -1.771,5.845 -5.031,5.845 z" id="path49"/>
</g>
<g id="g51">
	<path d="m 77.575,320.263 c -7.745,0 -13.623,-2.612 -18.475,-7.464 -6.998,-6.998 -6.718,-16.329 -6.718,-26.313 0,-9.983 -0.28,-19.314 6.718,-26.312 4.852,-4.852 10.73,-7.465 18.475,-7.465 12.597,0 22.767,6.998 25.193,21.647 H 86.159 c -1.026,-3.732 -3.08,-7.091 -8.491,-7.091 -2.986,0 -5.225,1.213 -6.438,2.799 -1.493,1.96 -2.52,4.292 -2.52,16.422 0,12.13 1.026,14.463 2.52,16.423 1.213,1.586 3.452,2.799 6.438,2.799 5.412,0 7.465,-3.359 8.491,-7.092 h 16.608 c -2.425,14.649 -12.596,21.647 -25.192,21.647 z" id="path53" style="fill:#ffffff"/>
	<path d="m 113.029,319.704 v -12.689 l 25.473,-39.189 H 114.149 V 253.27 h 43.948 v 12.689 l -25.566,39.189 h 25.566 v 14.556 h -45.068 z" id="path55" style="fill:#ffffff"/>
</g>
<g id="g57">
	<path d="m 809.753,160.449 -25.162,-44.573 26.021,-44.061 51.167,0.505 25.166,44.573 -26.024,44.061 -51.168,-0.505 z m 0,0" id="path59" style="fill:#bc3231"/>
	<path d="m 809.756,160.449 -25.165,-44.573 26.027,-44.061 51.161,0.502 25.166,44.569 -26.024,44.064 -51.165,-0.501 z m 0,0" id="path61" style="fill:none;stroke:#000000;stroke-width:2.79430008"/>
	<path d="m 846.594,147.617 0.228,7.426 1.213,-0.958 0.051,1.339 -1.213,0.932 -1.264,0.051 -0.252,-8.771 1.262,-0.019 h -0.025 z m -6.191,2.697 0.102,3.718 c 0.025,0.43 0.152,0.758 0.379,0.985 0.228,0.224 0.531,0.329 0.91,0.329 0.354,-0.025 0.656,-0.155 0.883,-0.382 0.203,-0.253 0.304,-0.582 0.304,-1.008 l -0.126,-3.714 c 0,-0.432 -0.127,-0.735 -0.354,-0.963 -0.228,-0.228 -0.531,-0.348 -0.91,-0.322 -0.354,0 -0.656,0.123 -0.885,0.375 -0.201,0.224 -0.303,0.556 -0.303,0.982 l 0,0 z m 3.715,-0.174 0.102,3.867 c 0.024,0.783 -0.203,1.417 -0.683,1.87 -0.506,0.451 -1.062,0.704 -1.718,0.704 -0.632,0.028 -1.213,-0.173 -1.744,-0.606 -0.53,-0.4 -0.783,-1.036 -0.809,-1.844 l -0.126,-3.834 c -0.025,-0.808 0.228,-1.444 0.708,-1.895 0.505,-0.461 1.061,-0.686 1.718,-0.713 0.632,0 1.213,0.202 1.743,0.609 0.505,0.425 0.784,1.034 0.809,1.842 l 0,0 z m 0,0" id="path63"/>
	<path d="m 827.189,147.106 0.072,8.04 1.345,-1.016 0.019,1.443 -1.338,1.007 h -1.364 l -0.098,-9.474 h 1.364 z m -4.5,0.025 0.079,8.06 1.336,-1.008 0.028,1.44 -1.339,1.011 h -1.364 l -0.098,-9.478 1.358,-0.025 z m 0,0" id="path65"/>
	<path d="m 814.307,142.89 -6.24,4.32 1.484,0.505 -1.112,0.78 -1.487,-0.531 -0.729,-1.058 7.346,-5.078 0.738,1.062 z m -1.444,-2.098 -1.007,0.679 -5.565,-0.375 c -0.225,-0.025 -0.401,0 -0.557,0.053 -0.123,0.044 -0.252,0.095 -0.375,0.174 -0.25,0.173 -0.433,0.426 -0.502,0.783 -0.104,0.329 -0.054,0.66 0.174,0.957 0.198,0.278 0.451,0.458 0.783,0.53 0.328,0.076 0.686,0.025 1.007,-0.202 l 0.739,1.061 c -0.61,0.408 -1.245,0.556 -1.921,0.436 -0.688,-0.129 -1.245,-0.46 -1.617,-1.016 -0.411,-0.6 -0.559,-1.26 -0.436,-1.94 0.129,-0.713 0.486,-1.27 1.061,-1.645 0.512,-0.354 1.042,-0.502 1.592,-0.458 l 4.598,0.303 -1.914,-2.798 1.036,-0.714 2.904,4.172 z m 0,0" id="path67"/>
	<path d="m 863.927,140.995 0.707,0.477 c 0.682,0.505 1.061,1.086 1.112,1.8 0.101,0.65 -0.052,1.26 -0.455,1.791 -0.379,0.581 -0.909,0.913 -1.566,1.061 -0.657,0.13 -1.339,-0.053 -2.047,-0.531 l -3.284,-2.35 c -0.683,-0.502 -1.062,-1.086 -1.162,-1.747 -0.076,-0.65 0.075,-1.26 0.479,-1.841 0.354,-0.48 0.809,-0.809 1.364,-0.957 0.557,-0.184 1.137,-0.13 1.77,0.148 l -0.784,1.061 c -0.53,-0.123 -0.96,0.051 -1.288,0.502 -0.48,0.66 -0.328,1.27 0.404,1.844 l 0.707,0.512 c 0.202,-0.634 0.455,-1.14 0.758,-1.573 0.329,-0.476 0.784,-0.754 1.365,-0.833 0.58,-0.097 1.213,0.104 1.92,0.636 l 0,0 z m -0.101,1.493 -0.632,-0.462 c -0.758,-0.53 -1.365,-0.451 -1.871,0.203 -0.454,0.686 -0.328,1.292 0.431,1.851 l 0.606,0.426 c 0.758,0.531 1.39,0.451 1.869,-0.203 0.456,-0.685 0.329,-1.284 -0.403,-1.815 l 0,0 z m 0,0" id="path69"/>
	<path d="m 873.452,128.159 c -0.379,-0.224 -0.733,-0.249 -1.062,-0.154 -0.329,0.129 -0.556,0.332 -0.733,0.635 -0.176,0.278 -0.227,0.609 -0.176,0.931 0.05,0.357 0.277,0.636 0.656,0.86 0.354,0.208 0.708,0.252 1.036,0.129 0.329,-0.104 0.581,-0.303 0.759,-0.606 0.151,-0.277 0.228,-0.61 0.151,-0.957 -0.05,-0.333 -0.252,-0.611 -0.631,-0.838 l 0,0 z m -2.652,-3.26 c 0.758,0.455 1.186,1.115 1.237,1.968 0.328,-0.098 0.682,-0.177 1.011,-0.149 0.354,0 0.707,0.104 1.036,0.303 0.656,0.357 1.062,0.913 1.237,1.591 0.203,0.705 0.102,1.365 -0.277,1.999 -0.354,0.651 -0.91,1.062 -1.592,1.235 -0.707,0.174 -1.364,0.076 -2.021,-0.307 -0.328,-0.198 -0.606,-0.451 -0.758,-0.754 -0.177,-0.277 -0.304,-0.61 -0.379,-0.957 -0.783,0.376 -1.541,0.322 -2.325,-0.104 -0.683,-0.433 -1.11,-0.982 -1.288,-1.721 -0.152,-0.73 -0.051,-1.434 0.328,-2.095 0.404,-0.66 0.936,-1.086 1.668,-1.289 0.707,-0.222 1.414,-0.127 2.123,0.28 l 0,0 z m -0.658,1.141 c -0.354,-0.208 -0.732,-0.252 -1.111,-0.155 -0.404,0.13 -0.683,0.354 -0.884,0.71 -0.202,0.322 -0.253,0.679 -0.178,1.08 0.102,0.408 0.329,0.711 0.683,0.913 0.354,0.224 0.732,0.25 1.137,0.155 0.379,-0.13 0.682,-0.357 0.859,-0.686 0.201,-0.357 0.252,-0.708 0.177,-1.115 -0.101,-0.4 -0.329,-0.703 -0.683,-0.902 l 0,0 z m 0,0" id="path71"/>
	<path d="m 872.518,103.853 2.223,-1.443 2.805,4.4 -1.111,0.704 -8.263,1.617 -0.783,-1.234 8.262,-1.617 -1.312,-2.05 -1.112,0.71 -0.709,-1.087 z m 0,0" id="path73"/>
	<path d="m 859.96,89.751 3.436,-2.147 c 0.733,-0.427 1.416,-0.557 2.098,-0.354 0.632,0.18 1.111,0.556 1.49,1.112 0.303,0.505 0.43,1.061 0.379,1.642 -0.05,0.584 -0.354,1.087 -0.858,1.567 l -0.683,-1.105 c 0.304,-0.462 0.328,-0.913 0.025,-1.418 -0.43,-0.685 -1.061,-0.783 -1.844,-0.303 l -0.733,0.452 c 0.48,0.406 0.859,0.833 1.137,1.289 0.304,0.511 0.405,1.042 0.278,1.598 -0.151,0.556 -0.606,1.061 -1.364,1.513 l -0.707,0.425 c -0.733,0.462 -1.415,0.582 -2.072,0.408 -0.606,-0.174 -1.112,-0.556 -1.517,-1.166 -0.328,-0.581 -0.454,-1.181 -0.328,-1.815 0.126,-0.687 0.53,-1.262 1.263,-1.698 l 0,0 z m 1.363,0.635 -0.631,0.401 c -0.783,0.505 -0.96,1.111 -0.557,1.797 0.43,0.679 1.062,0.809 1.871,0.326 l 0.631,-0.376 c 0.783,-0.505 0.961,-1.111 0.531,-1.815 -0.429,-0.69 -1.061,-0.784 -1.845,-0.333 l 0,0 z m 0,0" id="path75"/>
	<path d="m 843.94,80.103 0.076,-4.93 4.877,0.053 -0.025,1.311 -3.639,-0.051 -0.025,2.075 c 0.43,-0.328 0.91,-0.502 1.465,-0.476 0.354,0 0.683,0.069 0.961,0.198 0.277,0.149 0.505,0.307 0.682,0.481 0.229,0.277 0.43,0.581 0.531,0.913 0.101,0.296 0.151,0.853 0.151,1.617 0,0.601 -0.051,1.062 -0.151,1.364 -0.102,0.297 -0.252,0.575 -0.43,0.809 -0.203,0.252 -0.48,0.451 -0.809,0.654 -0.354,0.199 -0.732,0.303 -1.213,0.303 -0.58,0 -1.137,-0.203 -1.693,-0.556 -0.529,-0.382 -0.857,-0.985 -0.934,-1.845 h 1.313 c 0.126,0.729 0.581,1.087 1.288,1.087 0.631,0.025 1.011,-0.2 1.137,-0.636 0.102,-0.452 0.177,-0.884 0.177,-1.31 0,-0.506 -0.075,-0.932 -0.252,-1.264 -0.151,-0.328 -0.506,-0.502 -1.062,-0.502 -0.506,-0.028 -0.885,0.224 -1.188,0.729 l -1.237,-0.024 z m 0,0" id="path77"/>
	<path d="m 809.272,90.638 -0.929,-0.685 0.25,-0.376 c 0.252,-0.356 0.351,-0.685 0.307,-1.036 -0.054,-0.353 -0.228,-0.631 -0.531,-0.858 -0.303,-0.228 -0.635,-0.304 -1.017,-0.228 -0.348,0.073 -0.625,0.252 -0.853,0.53 -0.155,0.228 -0.234,0.506 -0.234,0.809 0,0.307 0.155,0.61 0.407,0.881 l -0.754,1.067 c -0.505,-0.436 -0.809,-0.963 -0.913,-1.642 -0.104,-0.689 0.026,-1.295 0.408,-1.826 0.477,-0.654 1.087,-1.036 1.791,-1.131 0.73,-0.079 1.364,0.07 1.895,0.452 0.307,0.199 0.53,0.451 0.733,0.783 0.18,0.304 0.25,0.68 0.25,1.112 0.411,-0.155 0.836,-0.199 1.219,-0.129 0.373,0.079 0.729,0.208 1.033,0.433 0.68,0.479 1.087,1.114 1.191,1.844 0.097,0.73 -0.08,1.419 -0.538,2.044 -0.351,0.505 -0.827,0.834 -1.462,1.017 -0.606,0.149 -1.259,0.07 -1.945,-0.277 l 0.754,-1.061 c 0.332,0.069 0.635,0.095 0.887,0.044 0.278,-0.07 0.531,-0.252 0.755,-0.556 0.203,-0.297 0.281,-0.629 0.252,-1.011 -0.05,-0.372 -0.252,-0.705 -0.625,-0.957 -0.382,-0.278 -0.739,-0.354 -1.111,-0.278 -0.383,0.073 -0.661,0.253 -0.888,0.585 l -0.332,0.45 z m 0,0" id="path79"/>
	<path d="m 824.739,82.91 v -1.244 l 2.981,-6.588 1.463,-0.028 -3.026,6.59 2.4,-0.025 -0.053,-2.653 h 1.313 l 0.051,2.628 h 0.729 l 0.025,1.241 h -0.754 l 0.027,1.364 -1.313,0.025 -0.025,-1.364 -3.818,0.054 z m 0,0" id="path81"/>
	<path d="m 801.945,110.217 -1.061,-0.601 -2.173,-5.312 c -0.098,-0.199 -0.199,-0.348 -0.296,-0.477 -0.105,-0.104 -0.234,-0.174 -0.333,-0.252 -0.277,-0.155 -0.606,-0.199 -0.963,-0.13 -0.347,0.051 -0.599,0.253 -0.808,0.61 -0.174,0.303 -0.2,0.631 -0.124,0.963 0.079,0.322 0.307,0.625 0.629,0.853 l -0.629,1.137 c -0.631,-0.353 -1.058,-0.883 -1.266,-1.562 -0.203,-0.705 -0.124,-1.339 0.208,-1.949 0.373,-0.65 0.903,-1.086 1.588,-1.286 0.705,-0.202 1.364,-0.129 1.993,0.225 0.557,0.306 0.938,0.733 1.137,1.263 l 1.8,4.371 1.716,-3.051 1.137,0.625 -2.555,4.573 z m 0,0" id="path83"/>
	<path d="m 803.717,123.103 -7.128,3.136 1.393,0.808 -1.264,0.556 -1.389,-0.809 -0.531,-1.215 8.389,-3.687 0.53,1.211 z m 0,0" id="path85"/>
	<path d="m 819.328,144.433 -16.116,-28.551 16.672,-28.225 32.773,0.328 16.12,28.551 -16.676,28.223 -32.773,-0.326 z m 0,0" id="path87" style="fill:none;stroke:#000000;stroke-width:1.39339995"/>
	<path d="m 826.355,132.151 -9.171,-16.274 9.478,-16.066 18.668,0.174 9.197,16.274 -9.501,16.066 -18.671,-0.174 z m 0,0" id="path89" style="fill:#ffffff"/>
	<path d="m 826.355,132.147 -9.171,-16.268 9.478,-16.066 18.668,0.17 9.197,16.274 -9.501,16.069 -18.671,-0.179 z m 0,0" id="path91" style="fill:none;stroke:#000000;stroke-width:1.39339995"/>
	<path d="m 852.733,88.084 9.576,-16.041 m -52.575,88.179 9.623,-16.142 m 32.669,0.224 9.551,16.701 m -50.99,-89.136 9.127,15.937 m 34.713,28.55 32.568,0.051 m -102.683,-0.123 32.994,0.029 m 18.322,15.813 -0.051,28.522 m 0.127,-89.291 -0.026,28.349 m 24.534,31.558 13.746,8.337 m -75.847,-46.006 13.337,8.084 m 0.13,28.681 -13.496,8.18 m 75.851,-46.007 -13.568,8.234" id="path93" style="fill:none;stroke:#000000;stroke-width:1.39339995"/>
	<path d="m 813.473,108.574 c -0.783,-0.574 -1.364,-1.112 -1.722,-1.643 -0.357,-0.505 -0.556,-1.01 -0.584,-1.512 -0.025,-0.505 0.158,-1.01 0.505,-1.488 0.252,-0.356 0.556,-0.609 0.913,-0.783 0.332,-0.155 0.704,-0.234 1.086,-0.208 0.401,0.025 0.834,0.129 1.289,0.332 0.451,0.173 1.033,0.502 1.693,0.982 0.758,0.582 1.338,1.112 1.696,1.643 0.347,0.505 0.556,1.016 0.575,1.522 0.025,0.502 -0.148,1.008 -0.506,1.487 -0.451,0.632 -1.061,0.983 -1.791,1.008 -0.857,0.024 -1.919,-0.427 -3.154,-1.34 l 0,0 z m 0.6,-0.833 c 1.086,0.809 1.895,1.216 2.451,1.216 0.555,0.025 0.963,-0.174 1.245,-0.53 0.277,-0.382 0.328,-0.834 0.148,-1.339 -0.177,-0.531 -0.808,-1.19 -1.898,-1.999 -1.086,-0.783 -1.895,-1.185 -2.45,-1.209 -0.531,0 -0.957,0.177 -1.235,0.556 -0.278,0.375 -0.328,0.784 -0.173,1.238 0.197,0.579 0.825,1.258 1.912,2.067 l 0,0 z m 3.764,-5.808 c -0.35,0.252 -0.729,0.382 -1.061,0.382 -0.347,-0.029 -0.679,-0.13 -1.007,-0.382 -0.48,-0.356 -0.758,-0.809 -0.837,-1.417 -0.07,-0.582 0.104,-1.156 0.531,-1.741 0.436,-0.556 0.938,-0.91 1.521,-1.014 0.601,-0.099 1.131,0.025 1.618,0.382 0.322,0.224 0.531,0.502 0.625,0.833 0.104,0.328 0.104,0.679 -0.025,1.111 0.46,-0.303 0.887,-0.451 1.339,-0.451 0.46,0 0.887,0.148 1.294,0.451 0.555,0.427 0.877,0.982 0.982,1.671 0.079,0.676 -0.104,1.336 -0.582,1.99 -0.48,0.661 -1.061,1.036 -1.74,1.166 -0.686,0.104 -1.32,-0.054 -1.895,-0.48 -0.436,-0.303 -0.714,-0.686 -0.833,-1.112 -0.131,-0.432 -0.103,-0.887 0.07,-1.389 l 0,0 z m -1.486,-0.834 c 0.331,0.224 0.66,0.303 0.982,0.25 0.356,-0.051 0.66,-0.225 0.887,-0.556 0.225,-0.328 0.329,-0.65 0.278,-0.982 -0.054,-0.356 -0.228,-0.635 -0.506,-0.834 -0.303,-0.227 -0.635,-0.303 -0.982,-0.253 -0.356,0.051 -0.635,0.227 -0.859,0.556 -0.228,0.303 -0.331,0.635 -0.281,0.982 0.053,0.356 0.202,0.634 0.481,0.837 l 0,0 z m 2.852,2.501 c 0.252,0.174 0.511,0.278 0.809,0.332 0.303,0.044 0.581,0.025 0.859,-0.104 0.281,-0.129 0.505,-0.332 0.714,-0.582 0.277,-0.375 0.375,-0.811 0.322,-1.238 -0.07,-0.432 -0.297,-0.78 -0.68,-1.087 -0.382,-0.277 -0.809,-0.381 -1.26,-0.303 -0.432,0.051 -0.809,0.303 -1.086,0.68 -0.303,0.382 -0.408,0.783 -0.332,1.241 0.078,0.426 0.277,0.783 0.654,1.061 l 0,0 z m 0,0" id="path95"/>
	<path d="m 851.85,99.151 c 0.833,-0.532 1.541,-0.835 2.147,-0.983 0.605,-0.129 1.162,-0.129 1.643,0.051 0.479,0.177 0.885,0.505 1.188,1.035 0.227,0.357 0.354,0.73 0.379,1.112 0.025,0.376 -0.051,0.758 -0.228,1.112 -0.177,0.351 -0.43,0.707 -0.784,1.061 -0.353,0.351 -0.858,0.758 -1.565,1.185 -0.809,0.486 -1.542,0.809 -2.147,0.963 -0.607,0.123 -1.138,0.123 -1.643,-0.05 -0.48,-0.174 -0.859,-0.505 -1.188,-1.036 -0.404,-0.66 -0.48,-1.339 -0.228,-2.024 0.304,-0.834 1.112,-1.643 2.426,-2.451 v 0.025 z m 0.53,0.887 c -1.137,0.686 -1.844,1.285 -2.047,1.791 -0.227,0.511 -0.201,0.963 0.025,1.339 0.254,0.407 0.633,0.635 1.188,0.66 0.557,0.025 1.39,-0.303 2.553,-0.982 1.162,-0.714 1.844,-1.314 2.047,-1.826 0.227,-0.504 0.201,-0.957 -0.052,-1.364 -0.228,-0.375 -0.581,-0.603 -1.062,-0.628 -0.605,-0.027 -1.49,0.305 -2.652,1.01 l 0,0 z m 1.036,5.808 0.581,0.79 c -0.354,0.296 -0.556,0.6 -0.606,0.903 -0.05,0.307 0,0.61 0.202,0.939 0.151,0.252 0.354,0.455 0.606,0.584 0.253,0.123 0.505,0.174 0.782,0.199 0.279,0 0.633,-0.076 1.012,-0.199 0.404,-0.104 0.783,-0.278 1.137,-0.512 0.051,-0.019 0.102,-0.045 0.177,-0.098 -0.379,0 -0.758,-0.104 -1.112,-0.303 -0.353,-0.202 -0.631,-0.451 -0.834,-0.808 -0.353,-0.581 -0.454,-1.216 -0.277,-1.87 0.178,-0.661 0.607,-1.191 1.314,-1.618 0.707,-0.433 1.415,-0.581 2.098,-0.407 0.682,0.155 1.212,0.53 1.616,1.165 0.278,0.452 0.405,0.964 0.379,1.495 0,0.53 -0.177,1.008 -0.506,1.487 -0.353,0.477 -0.935,0.982 -1.819,1.513 -0.883,0.53 -1.667,0.888 -2.299,1.017 -0.656,0.12 -1.237,0.07 -1.742,-0.129 -0.531,-0.227 -0.936,-0.584 -1.238,-1.115 -0.354,-0.556 -0.48,-1.086 -0.379,-1.617 0.099,-0.532 0.403,-1.009 0.908,-1.416 l 0,0 z m 5.255,1.642 c 0.48,-0.297 0.809,-0.679 0.935,-1.106 0.127,-0.461 0.076,-0.861 -0.151,-1.215 -0.228,-0.401 -0.58,-0.635 -1.086,-0.733 -0.48,-0.076 -0.961,0.028 -1.465,0.332 -0.455,0.271 -0.733,0.625 -0.834,1.061 -0.127,0.452 -0.076,0.853 0.176,1.26 0.253,0.401 0.582,0.635 1.011,0.729 0.454,0.08 0.908,-0.024 1.414,-0.328 l 0,0 z m 0,0" id="path97"/>
	<path d="m 852.481,124.647 0.505,-0.884 5.608,3.105 c -0.075,-0.326 -0.126,-0.705 -0.15,-1.16 0,-0.458 0.024,-0.859 0.075,-1.19 l 0.858,0.479 c -0.05,0.606 0,1.215 0.102,1.772 0.126,0.53 0.304,0.982 0.531,1.313 l -0.304,0.556 -7.225,-3.991 z m 2.299,4.22 c 0.834,0.476 1.465,0.938 1.895,1.415 0.43,0.455 0.683,0.931 0.759,1.437 0.101,0.511 0,1.014 -0.304,1.544 -0.202,0.375 -0.48,0.654 -0.783,0.881 -0.328,0.205 -0.683,0.303 -1.086,0.328 -0.379,0.026 -0.834,-0.025 -1.314,-0.148 -0.48,-0.129 -1.061,-0.383 -1.769,-0.783 -0.858,-0.458 -1.49,-0.91 -1.896,-1.39 -0.428,-0.451 -0.682,-0.938 -0.782,-1.443 -0.102,-0.501 0,-1.007 0.304,-1.538 0.379,-0.686 0.934,-1.087 1.642,-1.216 0.883,-0.148 1.97,0.155 3.334,0.913 l 0,0 z m -0.506,0.909 c -1.188,-0.661 -2.046,-0.964 -2.602,-0.885 -0.53,0.051 -0.91,0.278 -1.137,0.679 -0.228,0.408 -0.228,0.86 0.025,1.339 0.227,0.512 0.934,1.086 2.121,1.747 1.162,0.66 2.021,0.938 2.578,0.885 0.53,-0.051 0.934,-0.303 1.162,-0.711 0.227,-0.4 0.227,-0.833 0.025,-1.259 -0.276,-0.531 -1.009,-1.141 -2.172,-1.795 l 0,0 z m 0,0" id="path99"/>
	<path d="m 819.966,132.786 c -0.833,0.505 -1.548,0.828 -2.148,0.957 -0.609,0.149 -1.165,0.149 -1.642,-0.025 -0.487,-0.177 -0.887,-0.506 -1.19,-1.011 -0.228,-0.382 -0.357,-0.755 -0.382,-1.137 -0.019,-0.382 0.05,-0.733 0.208,-1.087 0.174,-0.382 0.426,-0.732 0.78,-1.086 0.331,-0.357 0.861,-0.758 1.541,-1.185 0.833,-0.512 1.538,-0.833 2.147,-0.964 0.606,-0.148 1.163,-0.148 1.643,0.025 0.477,0.149 0.888,0.506 1.191,1.008 0.426,0.686 0.505,1.364 0.277,2.053 -0.302,0.809 -1.11,1.618 -2.425,2.452 l 0,0 z m -0.555,-0.888 c 1.156,-0.71 1.84,-1.313 2.043,-1.816 0.225,-0.512 0.199,-0.966 -0.054,-1.364 -0.225,-0.382 -0.625,-0.609 -1.181,-0.635 -0.531,-0.025 -1.394,0.303 -2.531,1.008 -1.165,0.714 -1.844,1.313 -2.043,1.819 -0.208,0.512 -0.208,0.964 0.044,1.364 0.252,0.382 0.61,0.606 1.086,0.635 0.611,0.026 1.496,-0.307 2.636,-1.011 l 0,0 z m -5.461,-2.981 -0.834,0.505 -2.808,-4.523 0.685,-0.432 c 0.733,0.154 1.643,0.208 2.705,0.154 1.035,-0.025 2.072,-0.198 3.035,-0.476 0.704,-0.184 1.408,-0.487 2.122,-0.862 l 0.557,0.887 c -0.557,0.322 -1.296,0.625 -2.202,0.906 -0.91,0.278 -1.841,0.452 -2.808,0.503 -0.957,0.078 -1.815,0.025 -2.571,-0.095 l 2.119,3.433 z m 0,0" id="path101"/>
	<path d="m 831.886,93.645 c 0,2.043 -1.662,3.689 -3.686,3.689 -2.044,0 -3.687,-1.646 -3.687,-3.689 0,-2.05 1.643,-3.691 3.687,-3.691 2.025,0 3.686,1.641 3.686,3.691 l 0,0 z m 0,0" id="path103"/>
	<path d="m 831.886,93.642 c 0,2.047 -1.662,3.689 -3.686,3.689 -2.044,0 -3.687,-1.642 -3.687,-3.689 0,-2.046 1.643,-3.682 3.687,-3.682 2.025,-10e-4 3.686,1.635 3.686,3.682 l 0,0 z m 0,0" id="path105" style="fill:none;stroke:#000000;stroke-width:1.21650004"/>
	<path d="m 848.591,93.645 c 0,2.043 -1.669,3.689 -3.689,3.689 -2.047,0 -3.714,-1.646 -3.714,-3.689 0,-2.05 1.667,-3.691 3.714,-3.691 2.02,0 3.689,1.641 3.689,3.691 l 0,0 z m 0,0" id="path107"/>
	<path d="m 848.591,93.642 c 0,2.047 -1.669,3.689 -3.689,3.689 -2.047,0 -3.714,-1.642 -3.714,-3.689 0,-2.046 1.667,-3.682 3.714,-3.682 2.02,-10e-4 3.689,1.635 3.689,3.682 l 0,0 z m 0,0" id="path109" style="fill:none;stroke:#000000;stroke-width:1.21650004"/>
	<path d="m 831.886,138.54 c 0,2.027 -1.662,3.689 -3.686,3.689 -2.044,0 -3.687,-1.662 -3.687,-3.689 0,-2.043 1.643,-3.686 3.687,-3.686 2.025,0 3.686,1.643 3.686,3.686 l 0,0 z m 0,0" id="path111"/>
	<path d="m 831.886,138.54 c 0,2.025 -1.662,3.689 -3.686,3.689 -2.044,0 -3.687,-1.664 -3.687,-3.689 0,-2.046 1.643,-3.689 3.687,-3.689 2.025,0 3.686,1.643 3.686,3.689 l 0,0 z m 0,0" id="path113" style="fill:none;stroke:#000000;stroke-width:1.21650004"/>
	<path d="m 848.591,138.54 c 0,2.027 -1.669,3.689 -3.689,3.689 -2.047,0 -3.714,-1.662 -3.714,-3.689 0,-2.043 1.667,-3.686 3.714,-3.686 2.02,0 3.689,1.643 3.689,3.686 l 0,0 z m 0,0" id="path115"/>
	<path d="m 848.591,138.54 c 0,2.025 -1.669,3.689 -3.689,3.689 -2.047,0 -3.714,-1.664 -3.714,-3.689 0,-2.046 1.667,-3.689 3.714,-3.689 2.02,0 3.689,1.643 3.689,3.689 l 0,0 z m 0,0" id="path117" style="fill:none;stroke:#000000;stroke-width:1.21650004"/>
	<path d="m 831.513,110.217 v -6.19 h -2.306 v -0.833 h 5.54 v 0.833 h -2.306 v 6.19 h -0.928 z m 4.165,0 v -7.024 h 0.911 v 3.486 l 3.486,-3.486 h 1.264 l -2.931,2.859 3.057,4.165 h -1.213 l -2.501,-3.562 -1.162,1.137 v 2.425 h -0.911 z m 0,0" id="path119"/>
	<rect width="13.493" height="14.197" x="828.75598" y="114.035" id="rect121" style="fill:none;stroke:#000000;stroke-width:1.13209999"/>
	<rect width="12.456" height="3.086" x="829.26202" y="114.442" id="rect123"/>
	<rect width="12.456" height="3.086" x="829.26202" y="114.442" id="rect125" style="fill:none;stroke:#000000;stroke-width:0.95300001"/>
	<rect width="8.1400003" height="1.791" x="831.38" y="124.397" id="rect127"/>
	<rect width="8.1400003" height="1.791" x="831.38" y="124.397" id="rect129" style="fill:none;stroke:#000000;stroke-width:0.58410001"/>
	<rect width="3.9100001" height="1.946" x="830.45203" y="119.973" id="rect131"/>
	<rect width="3.9100001" height="1.946" x="830.45203" y="119.973" id="rect133" style="fill:none;stroke:#000000;stroke-width:0.42399999"/>
	<path d="m 835.25,50.238 c -36.513,0 -66.324,29.786 -66.324,66.324 0,36.56 29.812,66.327 66.324,66.327 36.509,0 66.298,-29.767 66.298,-66.327 0,-36.539 -29.789,-66.324 -66.298,-66.324 l 0,0 z m 0,11.875 c 30.142,0 54.474,24.354 54.474,54.449 0,30.118 -24.332,54.449 -54.474,54.449 -30.14,0 -54.5,-24.331 -54.5,-54.449 0,-30.096 24.36,-54.449 54.5,-54.449 l 0,0 z m 0,0" id="path135" style="fill:none;stroke:#9a9a9a;stroke-width:2"/>
</g>
<g id="g137">
	<path d="m 809.753,315.321 -25.162,-44.562 26.021,-44.072 51.167,0.505 25.166,44.57 -26.024,44.064 -51.168,-0.505 z m 0,0" id="path139" style="fill:#03805e"/>
	<path d="m 809.753,315.321 -25.166,-44.57 26.027,-44.057 51.164,0.499 25.166,44.57 -26.024,44.07 -51.167,-0.512 z m 0,0" id="path141" style="fill:none;stroke:#000000;stroke-width:2.79430008"/>
	<path d="m 846.594,302.485 0.228,7.43 1.213,-0.93 0.051,1.309 -1.213,0.959 -1.264,0.025 -0.252,-8.76 1.262,-0.033 h -0.025 z m -6.191,2.736 0.102,3.707 c 0.025,0.41 0.152,0.732 0.379,0.961 0.228,0.232 0.531,0.328 0.91,0.328 0.354,0 0.656,-0.119 0.883,-0.373 0.203,-0.252 0.304,-0.58 0.304,-0.992 l -0.126,-3.713 c 0,-0.424 -0.127,-0.752 -0.354,-0.98 -0.228,-0.227 -0.531,-0.334 -0.91,-0.334 -0.354,0.031 -0.656,0.152 -0.885,0.385 -0.201,0.253 -0.303,0.576 -0.303,1.011 l 0,0 z m 3.715,-0.203 0.102,3.859 c 0.024,0.809 -0.203,1.447 -0.683,1.895 -0.506,0.463 -1.062,0.689 -1.718,0.715 -0.632,0 -1.213,-0.209 -1.744,-0.607 -0.53,-0.436 -0.783,-1.035 -0.809,-1.844 l -0.126,-3.871 c -0.025,-0.809 0.228,-1.416 0.708,-1.869 0.505,-0.449 1.061,-0.684 1.718,-0.701 0.632,-0.027 1.213,0.176 1.743,0.6 0.505,0.409 0.784,1.034 0.809,1.823 l 0,0 z m 0,0" id="path143"/>
	<path d="m 827.189,301.987 0.072,8.027 1.345,-0.979 0.019,1.434 -1.338,0.992 -1.364,0.025 -0.098,-9.475 1.364,-0.024 z m -4.5,0.051 0.079,8.033 1.336,-0.99 0.028,1.439 -1.339,0.986 h -1.364 l -0.098,-9.469 h 1.358 z m 0,0" id="path145"/>
	<path d="m 814.307,297.76 -6.24,4.322 1.484,0.529 -1.112,0.764 -1.487,-0.529 -0.729,-1.043 7.346,-5.104 0.738,1.061 z m -1.444,-2.07 -1.007,0.688 -5.565,-0.41 c -0.225,0 -0.401,0.025 -0.557,0.051 -0.123,0.057 -0.252,0.125 -0.375,0.201 -0.25,0.184 -0.433,0.436 -0.502,0.758 -0.104,0.328 -0.054,0.656 0.174,0.967 0.198,0.303 0.451,0.475 0.783,0.557 0.328,0.068 0.686,0 1.007,-0.203 l 0.739,1.061 c -0.61,0.398 -1.245,0.531 -1.921,0.424 -0.688,-0.127 -1.245,-0.473 -1.617,-1.029 -0.411,-0.613 -0.559,-1.264 -0.436,-1.951 0.129,-0.676 0.486,-1.232 1.061,-1.643 0.512,-0.354 1.042,-0.506 1.592,-0.449 l 4.598,0.328 -1.914,-2.811 1.036,-0.725 2.904,4.186 z m 0,0" id="path147"/>
	<path d="m 863.927,295.872 0.707,0.506 c 0.682,0.48 1.061,1.086 1.112,1.762 0.101,0.664 -0.052,1.264 -0.455,1.82 -0.379,0.557 -0.909,0.908 -1.566,1.035 -0.657,0.127 -1.339,-0.043 -2.047,-0.531 l -3.284,-2.324 c -0.683,-0.506 -1.062,-1.086 -1.162,-1.762 -0.076,-0.639 0.075,-1.27 0.479,-1.852 0.354,-0.479 0.809,-0.783 1.364,-0.959 0.557,-0.17 1.137,-0.121 1.77,0.152 l -0.784,1.086 c -0.53,-0.152 -0.96,0.025 -1.288,0.486 -0.48,0.676 -0.328,1.289 0.404,1.844 l 0.707,0.498 c 0.202,-0.605 0.455,-1.137 0.758,-1.533 0.329,-0.486 0.784,-0.766 1.365,-0.859 0.555,-0.108 1.213,0.119 1.92,0.631 l 0,0 z m -0.101,1.484 -0.632,-0.424 c -0.758,-0.529 -1.365,-0.484 -1.871,0.203 -0.454,0.65 -0.328,1.256 0.431,1.838 l 0.606,0.43 c 0.758,0.512 1.39,0.436 1.869,-0.201 0.456,-0.678 0.329,-1.315 -0.403,-1.846 l 0,0 z m 0,0" id="path149"/>
	<path d="m 873.452,283.03 c -0.379,-0.195 -0.733,-0.252 -1.062,-0.119 -0.329,0.119 -0.556,0.322 -0.733,0.6 -0.176,0.303 -0.227,0.607 -0.176,0.967 0.05,0.328 0.277,0.625 0.656,0.834 0.354,0.227 0.708,0.277 1.036,0.145 0.329,-0.119 0.581,-0.328 0.759,-0.605 0.151,-0.297 0.201,-0.602 0.151,-0.961 -0.05,-0.355 -0.252,-0.633 -0.631,-0.861 l 0,0 z m -2.652,-3.258 c 0.758,0.461 1.186,1.111 1.237,1.977 0.328,-0.107 0.682,-0.158 1.011,-0.158 0.354,0 0.707,0.102 1.036,0.303 0.656,0.379 1.062,0.91 1.237,1.592 0.203,0.715 0.102,1.365 -0.277,2.021 -0.354,0.639 -0.91,1.035 -1.592,1.213 -0.707,0.184 -1.364,0.076 -2.021,-0.277 -0.328,-0.203 -0.606,-0.455 -0.758,-0.758 -0.177,-0.305 -0.304,-0.625 -0.379,-0.986 -0.783,0.385 -1.541,0.361 -2.325,-0.1 -0.683,-0.398 -1.11,-0.986 -1.288,-1.713 -0.152,-0.738 -0.051,-1.422 0.328,-2.078 0.404,-0.65 0.936,-1.086 1.668,-1.314 0.707,-0.228 1.414,-0.12 2.123,0.278 l 0,0 z m -0.658,1.137 c -0.354,-0.195 -0.732,-0.252 -1.111,-0.127 -0.404,0.102 -0.683,0.354 -0.884,0.682 -0.202,0.336 -0.253,0.709 -0.178,1.094 0.102,0.398 0.329,0.701 0.683,0.928 0.354,0.209 0.732,0.26 1.137,0.127 0.379,-0.127 0.682,-0.354 0.859,-0.676 0.201,-0.328 0.252,-0.715 0.177,-1.111 -0.101,-0.388 -0.329,-0.691 -0.683,-0.917 l 0,0 z m 0,0" id="path151"/>
	<path d="m 872.518,258.725 2.223,-1.408 2.805,4.363 -1.111,0.715 -8.263,1.615 -0.783,-1.244 8.262,-1.592 -1.312,-2.039 -1.112,0.701 -0.709,-1.111 z m 0,0" id="path153"/>
	<path d="m 859.96,244.633 3.436,-2.123 c 0.733,-0.461 1.416,-0.582 2.098,-0.379 0.632,0.17 1.111,0.555 1.49,1.137 0.303,0.506 0.43,1.061 0.379,1.643 -0.05,0.557 -0.354,1.086 -0.858,1.566 l -0.683,-1.143 c 0.304,-0.424 0.328,-0.91 0.025,-1.391 -0.43,-0.701 -1.061,-0.809 -1.844,-0.328 l -0.733,0.461 c 0.48,0.396 0.859,0.859 1.137,1.287 0.304,0.5 0.405,1.031 0.278,1.586 -0.151,0.557 -0.606,1.062 -1.364,1.516 l -0.707,0.461 c -0.733,0.424 -1.415,0.557 -2.072,0.373 -0.606,-0.176 -1.112,-0.555 -1.517,-1.131 -0.328,-0.58 -0.454,-1.219 -0.328,-1.85 0.126,-0.675 0.53,-1.237 1.263,-1.685 l 0,0 z m 1.363,0.651 -0.631,0.385 c -0.783,0.506 -0.96,1.111 -0.557,1.812 0.43,0.688 1.062,0.783 1.871,0.336 l 0.631,-0.412 c 0.783,-0.506 0.961,-1.111 0.531,-1.793 -0.429,-0.701 -1.061,-0.809 -1.845,-0.328 l 0,0 z m 0,0" id="path155"/>
	<path d="m 843.94,235 0.076,-4.945 4.877,0.05 -0.025,1.313 -3.639,-0.025 -0.025,2.041 c 0.43,-0.328 0.91,-0.48 1.465,-0.48 0.354,0 0.683,0.082 0.961,0.229 0.277,0.133 0.505,0.277 0.682,0.479 0.229,0.254 0.43,0.557 0.531,0.885 0.101,0.334 0.151,0.865 0.151,1.617 0,0.613 -0.051,1.086 -0.151,1.365 -0.102,0.309 -0.252,0.586 -0.43,0.84 -0.203,0.221 -0.48,0.447 -0.809,0.65 -0.354,0.209 -0.732,0.303 -1.213,0.277 -0.58,0 -1.137,-0.176 -1.693,-0.557 -0.529,-0.371 -0.857,-0.984 -0.934,-1.844 l 1.313,0.025 c 0.126,0.715 0.581,1.061 1.288,1.086 0.631,0 1.011,-0.227 1.137,-0.65 0.102,-0.436 0.177,-0.857 0.177,-1.312 0,-0.512 -0.075,-0.91 -0.252,-1.27 -0.151,-0.33 -0.506,-0.506 -1.062,-0.506 -0.506,0 -0.885,0.252 -1.188,0.732 h -1.237 z m 0,0" id="path157"/>
	<path d="m 809.272,245.51 -0.929,-0.676 0.25,-0.361 c 0.252,-0.346 0.351,-0.699 0.307,-1.061 -0.054,-0.354 -0.228,-0.631 -0.531,-0.857 -0.303,-0.203 -0.635,-0.279 -1.017,-0.229 -0.348,0.082 -0.625,0.252 -0.853,0.557 -0.155,0.227 -0.234,0.48 -0.234,0.809 0,0.303 0.155,0.58 0.407,0.865 l -0.754,1.055 c -0.505,-0.404 -0.809,-0.955 -0.913,-1.643 -0.104,-0.676 0.026,-1.283 0.408,-1.812 0.477,-0.664 1.087,-1.037 1.791,-1.119 0.73,-0.102 1.364,0.057 1.895,0.455 0.307,0.209 0.53,0.461 0.733,0.758 0.18,0.305 0.25,0.689 0.25,1.137 0.411,-0.17 0.836,-0.227 1.219,-0.145 0.373,0.076 0.729,0.221 1.033,0.424 0.68,0.504 1.087,1.111 1.191,1.844 0.097,0.738 -0.08,1.416 -0.538,2.053 -0.351,0.506 -0.827,0.834 -1.462,1.004 -0.606,0.178 -1.259,0.082 -1.945,-0.252 l 0.754,-1.086 c 0.332,0.105 0.635,0.105 0.887,0.057 0.278,-0.057 0.531,-0.229 0.755,-0.531 0.203,-0.303 0.281,-0.662 0.252,-1.01 -0.05,-0.381 -0.252,-0.715 -0.625,-0.992 -0.382,-0.252 -0.739,-0.354 -1.111,-0.279 -0.383,0.084 -0.661,0.279 -0.888,0.582 l -0.332,0.453 z m 0,0" id="path159"/>
	<path d="m 824.739,237.779 v -1.232 l 2.981,-6.6 1.463,-0.025 -3.026,6.6 2.4,-0.023 -0.053,-2.629 1.313,-0.025 0.051,2.654 0.729,-0.027 0.025,1.232 -0.754,0.025 0.027,1.338 -1.313,0.027 -0.025,-1.365 -3.818,0.05 z m 0,0" id="path161"/>
	<path d="m 801.945,265.098 -1.061,-0.582 -2.173,-5.305 c -0.098,-0.234 -0.199,-0.387 -0.296,-0.486 -0.105,-0.096 -0.234,-0.203 -0.333,-0.279 -0.277,-0.145 -0.606,-0.176 -0.963,-0.119 -0.347,0.076 -0.599,0.277 -0.808,0.605 -0.174,0.299 -0.2,0.627 -0.124,0.986 0.079,0.328 0.307,0.605 0.629,0.834 l -0.629,1.137 c -0.631,-0.354 -1.058,-0.885 -1.266,-1.572 -0.203,-0.684 -0.124,-1.34 0.208,-1.939 0.373,-0.664 0.903,-1.088 1.588,-1.295 0.705,-0.201 1.364,-0.096 1.993,0.252 0.557,0.277 0.938,0.713 1.137,1.244 l 1.8,4.371 1.716,-3.031 1.137,0.631 -2.555,4.548 z m 0,0" id="path163"/>
	<path d="m 803.717,277.985 -7.128,3.125 1.393,0.834 -1.264,0.557 -1.389,-0.809 -0.531,-1.207 8.389,-3.721 0.53,1.221 z m 0,0" id="path165"/>
	<path d="m 819.335,299.301 -16.126,-28.525 16.682,-28.215 32.768,0.303 16.12,28.551 -16.676,28.217 -32.768,-0.331 z m 0,0" id="path167" style="fill:none;stroke:#000000;stroke-width:1.39339995"/>
	<path d="m 826.355,287.022 -9.171,-16.264 9.478,-16.076 18.668,0.184 9.197,16.264 -9.501,16.076 -18.671,-0.184 z m 0,0" id="path169" style="fill:#ffffff"/>
	<path d="m 826.355,287.022 -9.174,-16.271 9.478,-16.068 18.671,0.178 9.197,16.27 -9.501,16.076 -18.671,-0.185 z m 0,0" id="path171" style="fill:none;stroke:#000000;stroke-width:1.39339995"/>
	<path d="m 852.733,242.991 9.576,-16.077 m -52.575,88.18 9.623,-16.146 m 32.669,0.254 9.551,16.701 m -50.99,-89.166 9.127,15.974 m 34.713,28.551 32.568,0.025 m -102.683,-0.132 32.994,0.051 m 18.322,15.816 -0.051,28.508 m 0.127,-89.292 -0.026,28.35 m 24.534,31.557 13.746,8.338 m -75.847,-45.992 13.337,8.086 m 0.13,28.652 -13.496,8.193 m 75.851,-45.992 -13.568,8.219" id="path173" style="fill:none;stroke:#000000;stroke-width:1.39339995"/>
	<path d="m 813.473,263.481 c -0.783,-0.582 -1.364,-1.137 -1.722,-1.643 -0.357,-0.506 -0.556,-1.035 -0.584,-1.541 -0.025,-0.512 0.158,-0.992 0.505,-1.473 0.252,-0.379 0.556,-0.631 0.913,-0.777 0.332,-0.176 0.704,-0.227 1.086,-0.201 0.401,0 0.834,0.121 1.289,0.297 0.451,0.184 1.033,0.537 1.693,1.018 0.758,0.555 1.338,1.111 1.696,1.617 0.347,0.504 0.556,1.004 0.575,1.533 0.025,0.506 -0.148,0.986 -0.506,1.492 -0.451,0.631 -1.061,0.967 -1.791,0.992 -0.857,0.026 -1.919,-0.412 -3.154,-1.314 l 0,0 z m 0.6,-0.859 c 1.086,0.809 1.895,1.207 2.451,1.232 0.555,0 0.963,-0.178 1.245,-0.557 0.277,-0.373 0.328,-0.809 0.148,-1.338 -0.177,-0.531 -0.808,-1.182 -1.898,-1.965 -1.086,-0.809 -1.895,-1.219 -2.45,-1.219 -0.531,-0.027 -0.957,0.156 -1.235,0.529 -0.278,0.385 -0.328,0.809 -0.173,1.264 0.197,0.581 0.825,1.27 1.912,2.054 l 0,0 z m 3.764,-5.793 c -0.35,0.254 -0.729,0.355 -1.061,0.355 -0.347,0 -0.679,-0.121 -1.007,-0.355 -0.48,-0.346 -0.758,-0.832 -0.837,-1.408 -0.07,-0.58 0.104,-1.162 0.531,-1.75 0.436,-0.58 0.938,-0.928 1.521,-1.029 0.601,-0.107 1.131,0.025 1.618,0.379 0.322,0.229 0.531,0.506 0.625,0.828 0.104,0.328 0.104,0.713 -0.025,1.111 0.46,-0.303 0.887,-0.455 1.339,-0.455 0.46,0.033 0.887,0.178 1.294,0.48 0.555,0.41 0.877,0.967 0.982,1.643 0.079,0.689 -0.104,1.363 -0.582,2.002 -0.48,0.65 -1.061,1.037 -1.74,1.156 -0.686,0.133 -1.32,-0.045 -1.895,-0.455 -0.436,-0.328 -0.714,-0.701 -0.833,-1.137 -0.131,-0.424 -0.103,-0.877 0.07,-1.365 l 0,0 z m -1.486,-0.852 c 0.331,0.227 0.66,0.322 0.982,0.277 0.356,-0.074 0.66,-0.258 0.887,-0.58 0.225,-0.305 0.329,-0.639 0.278,-0.992 -0.054,-0.348 -0.228,-0.625 -0.506,-0.834 -0.303,-0.227 -0.635,-0.297 -0.982,-0.252 -0.356,0.074 -0.635,0.252 -0.859,0.555 -0.228,0.305 -0.331,0.633 -0.281,0.992 0.053,0.348 0.202,0.625 0.481,0.834 l 0,0 z m 2.852,2.52 c 0.252,0.158 0.511,0.279 0.809,0.328 0.303,0.057 0.581,0 0.859,-0.125 0.281,-0.121 0.505,-0.322 0.714,-0.557 0.277,-0.404 0.375,-0.809 0.322,-1.238 -0.07,-0.447 -0.297,-0.809 -0.68,-1.086 -0.382,-0.303 -0.809,-0.398 -1.26,-0.328 -0.432,0.076 -0.809,0.303 -1.086,0.689 -0.303,0.396 -0.408,0.807 -0.332,1.23 0.078,0.436 0.277,0.809 0.654,1.087 l 0,0 z m 0,0" id="path175"/>
	<path d="m 851.85,254.032 c 0.833,-0.506 1.541,-0.834 2.147,-0.967 0.605,-0.146 1.162,-0.119 1.643,0.051 0.479,0.158 0.885,0.506 1.188,1.01 0.227,0.379 0.354,0.766 0.379,1.137 0.025,0.387 -0.051,0.734 -0.228,1.088 -0.177,0.385 -0.43,0.732 -0.784,1.086 -0.353,0.359 -0.858,0.732 -1.565,1.168 -0.809,0.506 -1.542,0.834 -2.147,0.955 -0.607,0.156 -1.138,0.131 -1.643,-0.051 -0.48,-0.152 -0.859,-0.506 -1.188,-1.012 -0.404,-0.676 -0.48,-1.363 -0.228,-2.039 0.304,-0.809 1.112,-1.618 2.426,-2.426 l 0,0 z m 0.53,0.879 c -1.137,0.713 -1.844,1.318 -2.047,1.799 -0.227,0.5 -0.201,0.953 0.025,1.365 0.254,0.371 0.633,0.605 1.188,0.625 0.557,0.049 1.39,-0.279 2.553,-0.986 1.162,-0.701 1.844,-1.314 2.047,-1.812 0.227,-0.48 0.201,-0.941 -0.052,-1.34 -0.228,-0.41 -0.581,-0.611 -1.062,-0.662 -0.605,-0.026 -1.49,0.302 -2.652,1.011 l 0,0 z m 1.036,5.816 0.581,0.777 c -0.354,0.309 -0.556,0.637 -0.606,0.939 -0.05,0.297 0,0.602 0.202,0.904 0.151,0.277 0.354,0.455 0.606,0.582 0.253,0.131 0.505,0.201 0.782,0.201 0.279,0 0.633,-0.051 1.012,-0.172 0.404,-0.131 0.783,-0.309 1.137,-0.504 0.051,-0.025 0.102,-0.082 0.177,-0.133 -0.379,0 -0.758,-0.094 -1.112,-0.303 -0.353,-0.178 -0.631,-0.455 -0.834,-0.809 -0.353,-0.574 -0.454,-1.182 -0.277,-1.844 0.178,-0.652 0.607,-1.207 1.314,-1.619 0.707,-0.447 1.415,-0.58 2.098,-0.422 0.682,0.145 1.212,0.555 1.616,1.182 0.278,0.461 0.405,0.934 0.379,1.465 0,0.531 -0.177,1.035 -0.506,1.516 -0.353,0.461 -0.935,0.967 -1.819,1.498 -0.883,0.555 -1.667,0.885 -2.299,1.004 -0.656,0.133 -1.237,0.082 -1.742,-0.119 -0.531,-0.234 -0.936,-0.582 -1.238,-1.113 -0.354,-0.529 -0.48,-1.086 -0.379,-1.617 0.099,-0.53 0.403,-1.015 0.908,-1.413 l 0,0 z m 5.255,1.643 c 0.48,-0.311 0.809,-0.664 0.935,-1.119 0.127,-0.422 0.076,-0.834 -0.151,-1.213 -0.228,-0.371 -0.58,-0.625 -1.086,-0.707 -0.48,-0.1 -0.961,0 -1.465,0.303 -0.455,0.285 -0.733,0.639 -0.834,1.094 -0.127,0.422 -0.076,0.859 0.176,1.232 0.253,0.41 0.582,0.662 1.011,0.738 0.454,0.068 0.908,-0.026 1.414,-0.328 l 0,0 z m 0,0" id="path177"/>
	<path d="m 852.481,279.518 0.505,-0.883 5.608,3.139 c -0.075,-0.336 -0.126,-0.732 -0.15,-1.193 0,-0.449 0.024,-0.859 0.075,-1.182 l 0.858,0.48 c -0.05,0.631 0,1.205 0.102,1.762 0.126,0.557 0.304,0.992 0.531,1.314 l -0.304,0.58 -7.225,-4.017 z m 2.299,4.227 c 0.834,0.48 1.465,0.953 1.895,1.408 0.43,0.461 0.683,0.941 0.759,1.445 0.101,0.5 0,1.006 -0.304,1.537 -0.202,0.385 -0.48,0.688 -0.783,0.891 -0.328,0.195 -0.683,0.328 -1.086,0.354 -0.379,0.025 -0.834,-0.025 -1.314,-0.158 -0.48,-0.119 -1.061,-0.373 -1.769,-0.783 -0.858,-0.475 -1.49,-0.93 -1.896,-1.391 -0.428,-0.479 -0.682,-0.953 -0.782,-1.434 -0.102,-0.512 0,-1.043 0.304,-1.547 0.379,-0.701 0.934,-1.111 1.642,-1.232 0.858,-0.133 1.97,0.171 3.334,0.91 l 0,0 z m -0.506,0.902 c -1.188,-0.65 -2.046,-0.928 -2.602,-0.883 -0.53,0.049 -0.91,0.277 -1.137,0.688 -0.228,0.424 -0.228,0.859 0.025,1.365 0.227,0.473 0.934,1.061 2.121,1.711 1.162,0.656 2.021,0.967 2.578,0.885 0.53,-0.051 0.934,-0.277 1.162,-0.701 0.227,-0.412 0.227,-0.809 0.025,-1.244 -0.276,-0.557 -1.009,-1.157 -2.172,-1.821 l 0,0 z m 0,0" id="path179"/>
	<path d="m 819.966,287.655 c -0.833,0.506 -1.548,0.84 -2.148,0.984 -0.609,0.133 -1.165,0.133 -1.642,-0.043 -0.487,-0.158 -0.887,-0.512 -1.19,-1.018 -0.228,-0.373 -0.357,-0.732 -0.382,-1.111 -0.019,-0.373 0.05,-0.76 0.208,-1.105 0.174,-0.355 0.426,-0.74 0.78,-1.086 0.331,-0.355 0.861,-0.74 1.541,-1.164 0.833,-0.504 1.538,-0.84 2.147,-0.984 0.606,-0.158 1.163,-0.133 1.643,0.02 0.477,0.182 0.888,0.51 1.191,1.016 0.426,0.678 0.505,1.365 0.277,2.041 -0.302,0.833 -1.11,1.641 -2.425,2.45 l 0,0 z m -0.555,-0.885 c 1.156,-0.701 1.84,-1.314 2.043,-1.82 0.225,-0.498 0.199,-0.953 -0.054,-1.338 -0.225,-0.404 -0.625,-0.605 -1.181,-0.656 -0.531,-0.02 -1.394,0.328 -2.531,1.041 -1.165,0.701 -1.844,1.314 -2.043,1.82 -0.208,0.498 -0.208,0.928 0.044,1.338 0.252,0.398 0.61,0.607 1.086,0.633 0.611,0.043 1.496,-0.305 2.636,-1.018 l 0,0 z m -5.461,-2.982 -0.834,0.506 -2.808,-4.521 0.685,-0.398 c 0.733,0.145 1.643,0.195 2.705,0.145 1.035,-0.051 2.072,-0.195 3.035,-0.48 0.704,-0.195 1.408,-0.473 2.122,-0.857 l 0.557,0.891 c -0.557,0.328 -1.296,0.631 -2.202,0.902 -0.91,0.26 -1.841,0.436 -2.808,0.512 -0.957,0.045 -1.815,0.025 -2.571,-0.107 l 2.119,3.407 z m 0,0" id="path181"/>
	<path d="m 831.886,248.516 c 0,2.053 -1.662,3.715 -3.686,3.715 -2.044,0 -3.687,-1.662 -3.687,-3.715 0,-2.014 1.643,-3.682 3.687,-3.682 2.025,0 3.686,1.668 3.686,3.682 l 0,0 z m 0,0" id="path183"/>
	<path d="m 831.886,248.524 c 0,2.045 -1.662,3.707 -3.686,3.707 -2.044,0 -3.687,-1.662 -3.687,-3.707 0,-2.029 1.643,-3.689 3.687,-3.689 2.025,-0.001 3.686,1.66 3.686,3.689 l 0,0 z m 0,0" id="path185" style="fill:none;stroke:#000000;stroke-width:1.21650004"/>
	<path d="m 848.591,248.516 c 0,2.053 -1.669,3.715 -3.689,3.715 -2.047,0 -3.714,-1.662 -3.714,-3.715 0,-2.014 1.667,-3.682 3.714,-3.682 2.02,0 3.689,1.668 3.689,3.682 l 0,0 z m 0,0" id="path187"/>
	<path d="m 848.591,248.524 c 0,2.045 -1.669,3.707 -3.689,3.707 -2.047,0 -3.714,-1.662 -3.714,-3.707 0,-2.029 1.667,-3.689 3.714,-3.689 2.02,-0.001 3.689,1.66 3.689,3.689 l 0,0 z m 0,0" id="path189" style="fill:none;stroke:#000000;stroke-width:1.21650004"/>
	<path d="m 831.886,293.422 c 0,2.039 -1.662,3.688 -3.686,3.688 -2.044,0 -3.687,-1.648 -3.687,-3.688 0,-2.053 1.643,-3.695 3.687,-3.695 2.025,0 3.686,1.643 3.686,3.695 l 0,0 z m 0,0" id="path191"/>
	<path d="m 831.886,293.422 c 0,2.045 -1.662,3.688 -3.686,3.688 -2.044,0 -3.687,-1.643 -3.687,-3.688 0,-2.047 1.643,-3.689 3.687,-3.689 2.025,0 3.686,1.642 3.686,3.689 l 0,0 z m 0,0" id="path193" style="fill:none;stroke:#000000;stroke-width:1.21650004"/>
	<path d="m 848.591,293.422 c 0,2.039 -1.669,3.688 -3.689,3.688 -2.047,0 -3.714,-1.648 -3.714,-3.688 0,-2.053 1.667,-3.695 3.714,-3.695 2.02,0 3.689,1.643 3.689,3.695 l 0,0 z m 0,0" id="path195"/>
	<path d="m 848.591,293.422 c 0,2.045 -1.669,3.688 -3.689,3.688 -2.047,0 -3.714,-1.643 -3.714,-3.688 0,-2.047 1.667,-3.689 3.714,-3.689 2.02,0 3.689,1.642 3.689,3.689 l 0,0 z m 0,0" id="path197" style="fill:none;stroke:#000000;stroke-width:1.21650004"/>
	<path d="m 829.391,265.68 v -7.025 h 1.383 l 1.667,4.971 c 0.159,0.455 0.253,0.809 0.329,1.037 0.082,-0.254 0.202,-0.625 0.385,-1.131 l 1.662,-4.877 h 1.266 v 7.025 h -0.909 v -5.869 l -2.018,5.869 h -0.834 l -2.027,-5.965 v 5.965 h -0.904 z m 8.208,0 v -7.025 h 5.078 v 0.834 h -4.142 v 2.148 h 3.865 v 0.826 h -3.865 v 2.381 h 4.294 v 0.836 h -5.23 z m 0,0" id="path199"/>
	<rect width="13.493" height="14.199" x="828.75598" y="268.91299" id="rect201" style="fill:none;stroke:#000000;stroke-width:1.13209999"/>
	<rect width="12.456" height="3.1070001" x="829.26202" y="269.311" id="rect203"/>
	<rect width="12.456" height="3.1070001" x="829.26202" y="269.311" id="rect205" style="fill:none;stroke:#000000;stroke-width:0.95300001"/>
	<rect width="8.1400003" height="1.768" x="831.38" y="279.29199" id="rect207"/>
	<rect width="8.1400003" height="1.768" x="831.38" y="279.29199" id="rect209" style="fill:none;stroke:#000000;stroke-width:0.58410001"/>
	<rect width="3.9100001" height="1.947" x="830.45203" y="274.85001" id="rect211"/>
	<rect width="3.9100001" height="1.947" x="830.45203" y="274.85001" id="rect213" style="fill:none;stroke:#000000;stroke-width:0.42399999"/>
	<path d="m 835.25,205.11 c -36.513,0 -66.324,29.796 -66.324,66.35 0,36.559 29.812,66.297 66.324,66.297 36.509,0 66.298,-29.738 66.298,-66.297 0,-36.554 -29.789,-66.35 -66.298,-66.35 l 0,0 z m 0,11.874 c 30.142,0 54.474,24.364 54.474,54.475 0,30.117 -24.332,54.447 -54.474,54.447 -30.14,0 -54.5,-24.33 -54.5,-54.447 0,-30.111 24.36,-54.475 54.5,-54.475 l 0,0 z m 0,0" id="path215" style="fill:none;stroke:#9a9a9a;stroke-width:2"/>
</g>
</svg>